<?xml version="1.0" encoding="UTF-8"?>
<svg id="Layer_2" data-name="Layer 2" xmlns="http://www.w3.org/2000/svg" viewBox="0 0 695.36 133.78">
  <defs>
    <style>
      .cls-1 {
        fill: #fff;
      }
    </style>
  </defs>
  <g id="Layer_1-2">
    <g>
      <g>
        <path class="cls-1" d="M208.43,32.44h0c6.54,0,12.56,3.6,15.65,9.37l12.69,23.66c3.11,5.8-1.09,12.82-7.67,12.82h0c-3.4,0-6.49-1.98-7.91-5.06l-.21-.45c-.66-1.42-2.08-2.34-3.65-2.34h-17.82c-1.57,0-2.99.91-3.65,2.33l-.21.45c-1.42,3.09-4.51,5.06-7.91,5.06h0c-6.58,0-10.79-7.02-7.67-12.82l12.69-23.66c3.09-5.77,9.11-9.37,15.65-9.37ZM208.44,59.25h0c2.93,0,4.88-3.04,3.64-5.7h0c-1.44-3.1-5.84-3.1-7.28,0h0c-1.24,2.66.7,5.71,3.64,5.71Z"/>
        <path class="cls-1" d="M535.42,32.31h0c6.54,0,12.56,3.6,15.65,9.37l12.69,23.66c3.11,5.8-1.09,12.82-7.67,12.82h0c-3.4,0-6.49-1.98-7.91-5.06l-.21-.45c-.66-1.42-2.08-2.34-3.65-2.34h-17.82c-1.57,0-2.99.91-3.65,2.33l-.21.45c-1.42,3.09-4.51,5.06-7.91,5.06h0c-6.58,0-10.79-7.02-7.67-12.82l12.69-23.66c3.09-5.77,9.11-9.37,15.65-9.37ZM535.43,59.12h0c2.93,0,4.88-3.04,3.64-5.7h0c-1.44-3.1-5.84-3.1-7.28,0h0c-1.24,2.66.7,5.71,3.64,5.71Z"/>
        <path class="cls-1" d="M285.84,32.44c12.59-.17,21.94,10.41,21.83,22.93.1,12.45-9.25,23.1-21.83,22.93h-32.85c-4.39,0-7.96-3.56-7.96-7.96v-29.94c0-4.39,3.56-7.96,7.96-7.96h32.85ZM282.5,46.97h-19.58v16.79h19.58c4.64,0,7.27-3.79,7.27-8.39s-2.63-8.39-7.27-8.39Z"/>
        <path class="cls-1" d="M342.97,50.11c12.79.65,30.77,1.53,30.74,13.03,0,13.1-15.01,16.21-31.11,16.21-9.28-.02-17.64-.68-23.39-3.96-5.83-3.33-3.44-12.24,3.27-12.24h4.9c1.59,0,3.06.68,4.26,1.73,2.43,2.13,6.41,2.74,10.96,2.74,5.56,0,12.38-.92,12.38-4.47,0-2.01-5.56-2.32-12.76-2.66-12.79-.65-30.77-1.53-30.74-13,0-13.1,15.01-16.24,31.12-16.24,9.3.06,17.69.69,23.44,3.99,5.82,3.35,3.45,12.25-3.26,12.25h-4.93c-1.6,0-3.08-.69-4.28-1.76-2.43-2.15-6.41-2.71-10.96-2.71-5.56,0-12.38.82-12.38,4.47,0,2.01,5.56,2.29,12.76,2.63Z"/>
        <path class="cls-1" d="M395.52,71.02v-16.79c0-4.01-3.25-7.27-7.27-7.27h-6.72c-4.01,0-7.27-3.25-7.27-7.27h0c0-4.01,3.25-7.27,7.27-7.27h45.85c4.01,0,7.27,3.25,7.27,7.27h0c0,4.01-3.25,7.27-7.27,7.27h-6.72c-4.01,0-7.27,3.25-7.27,7.27v16.79c0,4.01-3.25,7.27-7.27,7.27h-3.34c-4.01,0-7.27-3.25-7.27-7.27Z"/>
        <path class="cls-1" d="M484.82,32.4c9.45-.1,17.47,7.85,17.33,17.33,0,3.45-.92,6.58-2.76,9.38-1.81,2.76-4.23,4.88-7.23,6.28l.58.75c3.83,4.93.32,12.12-5.93,12.12h0c-2.33,0-4.52-1.08-5.95-2.92l-6.38-8.27h-15.97v3.68c0,4.15-3.36,7.51-7.51,7.51h-2.86c-4.15,0-7.51-3.36-7.51-7.51v-31.33c0-3.87,3.14-7.01,7.01-7.01h37.17ZM458.52,45.81v7.81h21.8c1.09,0,2.01-.38,2.76-1.13.78-.79,1.16-1.71,1.16-2.76,0-2.18-1.74-3.92-3.92-3.92h-21.8Z"/>
        <path class="cls-1" d="M620.24,59.22c8.23,0,11.57,10.86,4.59,15.24-5.69,3.57-13.66,4.89-22.46,4.89-17.2-.03-31.39-5.01-31.32-22.38v-3.34c-.07-17.33,14.12-22.31,31.32-22.38,8.78.02,16.73,1.34,22.42,4.89,6.98,4.36,3.64,15.24-4.59,15.24h-.89c-2.15,0-4.11-.99-5.63-2.52-2.39-2.4-6.53-3.04-11.3-3.04-7.3.1-13.51,1.4-13.41,8.94v1.13c-.1,7.47,6.11,8.84,13.41,8.94,4.78,0,8.93-.66,11.32-3.07,1.51-1.53,3.47-2.52,5.61-2.52h.94Z"/>
        <path class="cls-1" d="M656.23,71.02v-16.79c0-4.01-3.25-7.27-7.27-7.27h-6.72c-4.01,0-7.27-3.25-7.27-7.27h0c0-4.01,3.25-7.27,7.27-7.27h45.85c4.01,0,7.27,3.25,7.27,7.27h0c0,4.01-3.25,7.27-7.27,7.27h-6.72c-4.01,0-7.27,3.25-7.27,7.27v16.79c0,4.01-3.25,7.27-7.27,7.27h-3.34c-4.01,0-7.27-3.25-7.27-7.27Z"/>
      </g>
      <g>
        <path class="cls-1" d="M158.84,8.64C153.3,3.11,145.94.07,138.12.07h-.08l-15.89.04c-.59-.02-1.19-.05-1.79-.06-2.29-.06-5.87-.1-9.94.1l-16.09.04h-53.41c-.48-.02-.88-.01-1.26,0-1.12.02-2.31.07-3.55.15l-6.85.02C13.13.41,0,13.58,0,29.71v50.61c0,7.85,3.06,15.23,8.62,20.78,5.54,5.53,12.9,8.57,20.72,8.57h.08l31.48-.09c2.54,3.58,5.45,6.86,8.68,9.75,7.99,7.17,17.71,11.86,28.13,13.57l.14.02c2.62.39,6.1.85,9.79.85.46,0,.92,0,1.37-.02,5.39-.17,10.01-1.33,14.17-3.57l.23-.13c6.26-3.55,10.65-9.29,12.36-16.16.37-1.48.61-2.99.71-4.52h1.7c16.14-.05,29.27-13.21,29.27-29.35V29.42c0-7.85-3.06-15.23-8.62-20.78ZM119.56,46.44c8.31-.28,18.26-1.14,25.66,3.78,12.33,8.29,10.65,28.76,3.86,38.03-2.74,3.66-7.39,6.19-11.67,7.55-4.47,1.34-8.84-.44-11.58-3.8-2.24-2.67-3.47-3.76-5.58-6.71-2.06-2.95-4.17-5.87-6.11-8.89-1.96-3-2.43-5.95,1.38-7.34,2.09-.71,4.34-.23,6.5.34,1.6.41,3.83,1.5,5.33,1.56,2.26.09,1.73-1.71.56-2.97-.85-.98-2.47-2.77-4.61-3.55-3.57-1.3-7.32-1.85-11.17-2.1-3.43-.39-7.18-.2-9.51-2.42-5.4-6.33-12.96-16.57-17.82-22.61-1.12-1.45-2.34-2.89-3.04-4.54v-.02c-1.65-3.85-.25-8,2.65-11.1,2.62-2.89,6.1-5.07,9.78-6.26,14.01-4.25,38.37-3.09,49.27.93,2.3.91,5.93,3.18,7.54,5.22,4.94,6.22,6.05,19.23-4.03,20.33-7.78.88-21.38-5.18-29.28-2.53-7.14,2.67-7.68,7.43,1.85,7.1ZM50.19,74.12c0,4.49,0,8.9-2.37,12.8-3.28,5.59-8.97,9.22-15.55,9.24-9.04.17-16.94-6.28-18.87-15-.48-1.92-.66-3.83-.68-5.81-.05-6.66.01-16.07-.01-23.89-.01-5.42.16-9.55.85-14.55,1.44-10.48,6.08-22.56,23.03-23.85,9.47-.72,17.61.81,25.13,7.13,2.04,1.68,6.43,7.4,7.79,9.13,7.45,10.21,40.32,53.71,52.66,71.18v.02c.94,1.85,1.48,3.8,1.64,5.74.42,5.03-1.76,9.96-6.66,12.74-5.2,2.79-11.74,2.2-17.4,1.35-9.92-1.63-18.65-6.73-25.14-13.96-4.3-4.79-7.62-10.51-9.65-16.78-.37-1.02-.78-2.17-1.28-3.57-2.14-5.96-5.21-14.58-7.09-19.79-.36-.95-.81-2.02-1.44-2.67-1.64-1.68-4.37-1-4.73.69-.59,2.51-.13,7.08-.22,9.84Z"/>
        <path class="cls-1" d="M48.29,31.71c-4.82.66-5.46,8.94-5.43,13.25.05,1.61.16,3.35.88,4.78,1.25,2.44,4.35,1.9,6.94,1.64,2.83-.25,5.43-1.27,5.3-4.17-.16-3.67-1.13-7.89-2.71-11.11-1.19-2.18-2.42-4.43-4.98-4.39Z"/>
      </g>
    </g>
  </g>
</svg>