<?xml version="1.0" encoding="UTF-8"?>
<svg id="Layer_2" data-name="Layer 2" xmlns="http://www.w3.org/2000/svg" viewBox="0 0 480.67 394.29">
  <defs>
    <style>
      .cls-1 {
        fill: #fff;
      }

      .cls-2 {
        fill: #231f20;
      }
    </style>
  </defs>
  <g id="Layer_1-2">
    <g>
      <path class="cls-1" d="M451.02,29.63h0C431.98,10.64,406.68.18,379.77.18l-40.43.11c-1.44-.06-2.89-.11-4.36-.15-6.15-.17-15.79-.27-26.83.24l-40.62.11h-136.43c-1.72-.05-3.19-.04-4.41.02-2.97.05-6.11.18-9.33.39l-16.74.05C45.13,1.09,0,46.35,0,101.83v129.76c0,27,10.53,52.37,29.65,71.43,19.05,18.99,44.34,29.45,71.26,29.45l68.32-.19c5.47,6.59,11.42,12.77,17.72,18.42,24.15,21.65,53.61,35.84,85.26,41.04l.53.08c7.6,1.14,17.75,2.45,28.92,2.45,1.45,0,2.9-.02,4.33-.07,17.87-.57,33.52-4.59,47.95-12.35l.82-.45c20.2-11.47,34.99-29.5,42.07-51.14,48.14-8.21,83.83-50.09,83.83-99.44V101.07c0-27-10.53-52.37-29.64-71.43Z"/>
      <path class="cls-2" d="M432.92,47.79c-14.21-14.17-33.07-21.97-53.13-21.97h-.21l-40.75.11c-1.52-.06-3.04-.12-4.58-.16-5.87-.16-15.05-.26-25.48.25l-41.26.11h-136.94c-1.23-.04-2.26-.03-3.24.01-2.86.04-5.92.18-9.1.4l-17.56.05c-41.38.11-75.04,33.87-75.04,75.24v129.76c0,20.14,7.85,39.06,22.11,53.28,14.21,14.17,33.07,21.97,53.13,21.97h.21l80.73-.22c6.5,9.19,13.97,17.59,22.24,25.01,20.5,18.38,45.42,30.41,72.13,34.8l.36.06c6.72,1.01,15.64,2.17,25.11,2.17,1.18,0,2.36-.02,3.52-.06,13.82-.44,25.68-3.42,36.34-9.15l.59-.33c16.04-9.11,27.3-23.83,31.7-41.44.95-3.79,1.56-7.66,1.83-11.59h4.36c41.38-.12,75.04-33.88,75.04-75.26V101.07c0-20.14-7.85-39.06-22.11-53.28ZM332.19,144.72c21.3-.73,46.82-2.93,65.81,9.69,31.63,21.25,27.31,73.73,9.89,97.52-7.01,9.39-18.96,15.86-29.91,19.36-11.45,3.42-22.65-1.12-29.68-9.74-5.74-6.84-8.9-9.64-14.3-17.19-5.29-7.55-10.69-15.05-15.66-22.79-5.04-7.68-6.23-15.25,3.54-18.82,5.35-1.81,11.13-.58,16.68.88,4.1,1.06,9.83,3.84,13.66,3.99,5.79.23,4.44-4.38,1.43-7.61-2.17-2.51-6.34-7.1-11.81-9.1-9.15-3.33-18.77-4.74-28.65-5.39-8.8-1-18.4-.52-24.39-6.2-13.85-16.24-33.22-42.48-45.69-57.98-2.87-3.72-5.99-7.41-7.79-11.65l-.03-.06c-4.21-9.86-.62-20.51,6.83-28.45,6.73-7.41,15.64-12.99,25.07-16.04,35.93-10.91,98.39-7.93,126.34,2.38,5.89,2.32,15.2,8.16,19.34,13.37,12.67,15.96,15.51,49.3-10.32,52.14-19.96,2.24-54.83-13.29-75.09-6.5-18.32,6.84-19.68,19.05,4.75,18.2ZM154.33,215.68c0,11.51-.01,22.81-6.07,32.83-8.41,14.33-22.99,23.65-39.88,23.68-23.17.44-43.44-16.1-48.38-38.47-1.23-4.92-1.69-9.83-1.75-14.89-.12-17.07.03-41.2-.04-61.25-.03-13.9.42-24.47,2.19-37.3,3.7-26.86,15.59-57.84,59.05-61.16,24.28-1.86,45.15,2.08,64.43,18.28,5.23,4.31,16.49,18.98,19.96,23.41,19.1,26.19,103.39,137.7,135.02,182.52l.03.06c2.38,4.74,3.78,9.75,4.19,14.72,1.07,12.9-4.52,25.54-17.07,32.66-13.33,7.16-30.11,5.65-44.61,3.47-25.43-4.18-47.81-17.26-64.45-35.79-11.03-12.28-19.54-26.95-24.73-43.03-.95-2.62-2-5.57-3.28-9.16-5.49-15.29-13.35-37.4-18.19-50.73-.91-2.43-2.08-5.18-3.7-6.84-4.19-4.29-11.2-2.57-12.14,1.77-1.52,6.44-.34,18.16-.57,25.22Z"/>
      <path class="cls-2" d="M149.45,106.96c-12.35,1.69-14.01,22.92-13.93,33.96.12,4.13.4,8.58,2.26,12.25,3.21,6.26,11.17,4.87,17.8,4.21,7.26-.65,13.92-3.24,13.59-10.69-.42-9.42-2.89-20.23-6.96-28.5-3.05-5.6-6.19-11.36-12.76-11.25Z"/>
    </g>
  </g>
</svg>