<?xml version="1.0" encoding="UTF-8"?>
<svg id="Layer_2" data-name="Layer 2" xmlns="http://www.w3.org/2000/svg" viewBox="0 0 480.67 383.97">
  <defs>
    <style>
      .cls-1 {
        fill: #fff;
      }
    </style>
  </defs>
  <g id="Layer_1-2">
    <g>
      <path class="cls-1" d="M455.92,24.79C440.01,8.93,418.9.2,396.44.2h-.24l-45.61.12c-1.7-.07-3.41-.13-5.13-.18-6.57-.18-16.85-.29-28.52.27l-46.18.13H117.47c-1.37-.04-2.53-.04-3.62.01-3.21.05-6.63.2-10.19.44l-19.66.05C37.68,1.18,0,38.97,0,85.28v145.26c0,22.54,8.79,43.72,24.75,59.64,15.91,15.86,37.02,24.59,59.47,24.59h.23l90.37-.25c7.28,10.29,15.64,19.69,24.9,27.99,22.95,20.58,50.85,34.05,80.74,38.96l.4.06c7.52,1.13,17.51,2.43,28.11,2.43,1.32,0,2.64-.02,3.94-.06,15.47-.49,28.74-3.83,40.68-10.24l.66-.37c17.96-10.2,30.56-26.67,35.48-46.39,1.06-4.24,1.74-8.58,2.05-12.97h4.88c46.32-.14,84-37.92,84-84.24V84.43c0-22.54-8.79-43.72-24.75-59.64ZM343.16,133.3c23.84-.82,52.41-3.28,73.67,10.85,35.4,23.79,30.57,82.53,11.07,109.16-7.85,10.51-21.22,17.76-33.48,21.68-12.82,3.83-25.36-1.25-33.23-10.9-6.43-7.65-9.96-10.79-16.01-19.25-5.92-8.45-11.97-16.85-17.53-25.51-5.64-8.6-6.97-17.07,3.96-21.07,5.99-2.03,12.46-.65,18.67.99,4.59,1.19,11,4.3,15.29,4.47,6.48.26,4.97-4.9,1.6-8.52-2.43-2.81-7.09-7.95-13.22-10.19-10.24-3.73-21.01-5.31-32.07-6.04-9.85-1.12-20.6-.58-27.3-6.94-15.5-18.18-37.19-47.55-51.14-64.9-3.21-4.16-6.7-8.29-8.72-13.04l-.03-.07c-4.71-11.04-.69-22.97,7.64-31.85,7.53-8.29,17.51-14.54,28.06-17.96,40.22-12.21,110.15-8.88,141.43,2.66,6.6,2.6,17.02,9.14,21.65,14.97,14.18,17.87,17.36,55.18-11.56,58.36-22.34,2.51-61.38-14.88-84.05-7.28-20.51,7.65-22.03,21.33,5.32,20.37ZM144.05,212.74c0,12.88-.02,25.54-6.8,36.75-9.42,16.04-25.74,26.48-44.64,26.51-25.94.49-48.63-18.02-54.16-43.07-1.38-5.5-1.9-11-1.96-16.67-.14-19.11.03-46.12-.04-68.56-.03-15.56.47-27.4,2.45-41.75,4.14-30.07,17.46-64.75,66.1-68.46,27.18-2.08,50.54,2.33,72.12,20.46,5.85,4.82,18.46,21.24,22.35,26.21,21.38,29.31,115.73,154.15,151.15,204.32l.03.07c2.66,5.31,4.23,10.91,4.69,16.47,1.2,14.44-5.06,28.59-19.11,36.56-14.92,8.02-33.71,6.32-49.94,3.89-28.46-4.68-53.52-19.32-72.14-40.06-12.35-13.75-21.88-30.17-27.68-48.17-1.06-2.93-2.24-6.23-3.68-10.25-6.15-17.11-14.94-41.86-20.36-56.79-1.02-2.72-2.33-5.8-4.14-7.66-4.7-4.81-12.54-2.88-13.59,1.99-1.71,7.2-.38,20.33-.64,28.23Z"/>
      <path class="cls-1" d="M138.59,91.03c-13.83,1.89-15.68,25.66-15.59,38.02.14,4.62.45,9.6,2.52,13.72,3.59,7.01,12.5,5.45,19.93,4.72,8.12-.73,15.59-3.63,15.22-11.96-.47-10.54-3.24-22.65-7.79-31.9-3.42-6.27-6.93-12.71-14.29-12.59Z"/>
    </g>
  </g>
</svg>